<?xml version="1.0" encoding="UTF-8"?>
<svg id="Capa_1" xmlns="http://www.w3.org/2000/svg" version="1.1" viewBox="0 0 512 512">
  <!-- Generator: Adobe Illustrator 29.5.1, SVG Export Plug-In . SVG Version: 2.1.0 Build 141)  -->
  <defs>
    <style>
      .st0 {
        fill: #2092d0;
      }
    </style>
  </defs>
  <path class="st0" d="M467,76H45C20.2,76,0,96.1,0,121v270c0,24.9,20.3,45,45,45h422c24.8,0,45-20.1,45-45V121c0-24.9-20.2-45-45-45ZM460.1,106c-14.5,14.6-185.4,186-192.5,193.1-5.9,5.9-17.4,5.9-23.2,0L51.9,106h408.2ZM30,385.5V126.5l129.1,129.5L30,385.5ZM51.9,406l128.3-128.8,42.9,43c17.6,17.6,48.2,17.6,65.7,0l42.9-43,128.3,128.8H51.9ZM482,385.5l-129.1-129.5,129.1-129.5v259Z"/>
</svg>