<svg width="24" height="24" viewBox="0 0 24 24" fill="none" xmlns="http://www.w3.org/2000/svg">
<g clip-path="url(#clip0_1180_23039)">
<path d="M4.39467 3.3991C4.15501 3.36486 3.94959 3.3991 3.74417 3.52463C2.88825 4.65445 1.84974 5.8185 1.08511 7.00537C0.845457 7.37056 0.662862 7.66728 0.925344 8.11236C1.05088 8.31778 1.61008 8.71721 1.65573 8.87698C1.70138 9.02534 1.68996 9.81278 1.62149 9.93832C1.37042 10.3834 0.719923 10.4176 0.822633 11.2165C0.913931 11.867 1.8155 11.9925 1.66714 12.7115C1.6329 12.9055 1.33618 13.031 1.21065 13.168C-1.69947 16.2036 0.856869 21.1337 4.9881 20.4148C8.13789 19.867 9.57583 16.0895 7.5901 13.5674C7.33903 13.2479 7.00807 13.031 6.79124 12.7115L6.76841 5.73861C6.74559 5.61308 6.67712 5.52178 6.60864 5.41907C6.3804 5.09952 5.0794 3.80994 4.77127 3.5817C4.65715 3.50181 4.55444 3.43334 4.40608 3.41051L4.39467 3.3991ZM4.34902 5.57884L5.0794 6.35487V13.4419C5.18211 13.8984 5.60437 14.0125 5.9125 14.275C7.44174 15.5988 6.88254 18.0981 4.95387 18.6573C2.54588 19.3534 0.65145 16.5232 2.26058 14.5717C2.60294 14.1494 3.29909 13.9212 3.37898 13.3962C3.43604 13.031 3.43604 11.73 3.24203 11.4561C3.18497 11.3649 2.88825 11.148 2.89966 11.0567C3.08226 10.8399 3.3105 10.7029 3.36756 10.3948C3.43604 10.0182 3.42463 8.83133 3.37898 8.4319C3.33333 8.00965 3.05943 7.8727 2.79695 7.57598L4.36043 5.57884H4.34902Z" fill="#2092D0"/>
<path d="M22.1637 7.72581L22.1637 16.2037H10.82C10.82 16.2037 10.5689 16.3178 10.5232 16.3406C9.87275 16.7857 10.1124 17.7786 10.877 17.9041H22.1866C23.0653 17.847 23.7044 17.3107 23.8642 16.4319C23.8644 14.3806 23.864 9.48516 23.8642 7.57745C23.7957 6.75577 23.1566 6.11669 22.3349 6.00256H9.30213C8.62881 6.02539 8.24079 6.76718 8.6174 7.3378C8.69728 7.46333 9.01683 7.7144 9.15377 7.7144H22.1637V7.72581Z" fill="#2092D0"/>
<path d="M19.3775 10.884C17.7832 10.6259 17.5403 12.9035 18.9068 13.116C20.5011 13.3742 20.7441 11.0966 19.3775 10.884Z" fill="#2092D0"/>
<path d="M15.6929 10.884C14.0986 10.6259 13.8557 12.9035 15.2222 13.116C16.8166 13.3742 17.0595 11.0966 15.6929 10.884Z" fill="#2092D0"/>
<path d="M12.0093 10.884C10.415 10.6259 10.1721 12.9035 11.5386 13.116C13.133 13.3742 13.3759 11.0966 12.0093 10.884Z" fill="#2092D0"/>
<path d="M4.39474 15.3591C3.19646 15.165 3.01386 16.8769 4.04096 17.0367C5.23925 17.2307 5.42185 15.5188 4.39474 15.3591Z" fill="#2092D0"/>
</g>
<defs>
<clipPath id="clip0_1180_23039">
<rect width="24" height="24" fill="white"/>
</clipPath>
</defs>
</svg>
